<svg width="48" height="22" viewBox="0 0 48 22" fill="none" xmlns="http://www.w3.org/2000/svg">
<path d="M10.8964 13.72V10.528H20.5564C20.6124 12.0213 20.4351 13.4307 20.0244 14.756C19.6324 16.0813 19.0071 17.2573 18.1484 18.284C17.3084 19.292 16.2631 20.0853 15.0124 20.664C13.7618 21.2427 12.3338 21.532 10.7284 21.532C9.21644 21.532 7.81644 21.28 6.52844 20.776C5.2591 20.272 4.14844 19.5627 3.19644 18.648C2.2631 17.7333 1.5351 16.6413 1.01244 15.372C0.508438 14.1027 0.256438 12.712 0.256438 11.2C0.256438 9.688 0.517771 8.30667 1.04044 7.056C1.58177 5.78667 2.32844 4.704 3.28044 3.808C4.23244 2.912 5.35244 2.22133 6.64044 1.736C7.92844 1.25067 9.32844 1.008 10.8404 1.008C12.1844 1.008 13.3884 1.19467 14.4524 1.568C15.5351 1.94133 16.4871 2.464 17.3084 3.136C18.1484 3.78933 18.8671 4.57333 19.4644 5.488L16.0484 7.476C15.5631 6.61733 14.8818 5.92667 14.0044 5.404C13.1458 4.86267 12.0911 4.592 10.8404 4.592C9.66444 4.592 8.5911 4.86267 7.62044 5.404C6.64977 5.92667 5.8751 6.68267 5.29644 7.672C4.73644 8.66133 4.45644 9.83733 4.45644 11.2C4.45644 12.544 4.73644 13.7293 5.29644 14.756C5.85644 15.764 6.61244 16.548 7.56444 17.108C8.5351 17.668 9.6271 17.948 10.8404 17.948C11.6431 17.948 12.3618 17.8453 12.9964 17.64C13.6311 17.416 14.1724 17.108 14.6204 16.716C15.0871 16.324 15.4791 15.876 15.7964 15.372C16.1138 14.868 16.3564 14.3173 16.5244 13.72H10.8964ZM30.9377 9.996L29.6777 21H25.5057L28.4177 0.42L36.6217 13.076L44.8257 0.42L47.7377 21H43.5657L42.3057 9.996L36.6217 19.18L30.9377 9.996Z" fill="white"/>
</svg>
